<?xml version="1.0" encoding="UTF-8"?>
<svg id="Layer_1" xmlns="http://www.w3.org/2000/svg" version="1.1" xmlns:xlink="http://www.w3.org/1999/xlink" viewBox="0 0 494.7 571">
  <!-- Generator: Adobe Illustrator 29.8.4, SVG Export Plug-In . SVG Version: 2.1.1 Build 6)  -->
  <defs>
    <style>
      .st0 {
        fill: url(#linear-gradient);
        stroke: #000;
        stroke-miterlimit: 10;
      }

      .st1 {
        fill: url(#linear-gradient2);
      }

      .st2 {
        fill: url(#linear-gradient1);
      }

      .st3 {
        fill: url(#linear-gradient3);
      }
    </style>
    <linearGradient id="linear-gradient" x1="32.6" y1="258.9" x2="464.9" y2="258.9" gradientUnits="userSpaceOnUse">
      <stop offset="0" stop-color="#fff"/>
      <stop offset="1" stop-color="#fff"/>
    </linearGradient>
    <linearGradient id="linear-gradient1" x1="482.8" y1="285.5" x2="11.9" y2="285.5" gradientUnits="userSpaceOnUse">
      <stop offset="0" stop-color="#262626"/>
      <stop offset="1" stop-color="#5d5d5d"/>
    </linearGradient>
    <linearGradient id="linear-gradient2" x1="112.8" y1="204.4" x2="434.1" y2="204.4" gradientUnits="userSpaceOnUse">
      <stop offset="0" stop-color="#e44"/>
      <stop offset="1" stop-color="#500"/>
    </linearGradient>
    <linearGradient id="linear-gradient3" x1="106.5" y1="366.9" x2="330.8" y2="366.9" xlink:href="#linear-gradient2"/>
  </defs>
  <path class="st0" d="M32.6,111.8l56.3-6.3,30.6-19.6,56.8-20.9,48.2-23.4,20.2-6.3,19,7,29.1,5.7,58.9,19.6,41.1,12.7,36.1,15.1,32.9,14,3.2,50.6-2.5,36.7-1.3,24-10.1,60.9-7.3,22.6-9.6,39.5-2.7,23.2-10.8,24-13.9,24.7-34.8,33.8-65.2,33.3h-84.8l-59.5-25.9-34.4-23.4-28.9-20.9-10.8-27.2-25.9-47.5-14.6-62s-6.3-26.8-7.6-30.2-5.1-49-5.1-49l-2.5-32.3v-52.5Z"/>
  <path class="st2" d="M480.3,93.8c2.2,5.8.8,12.2,1.2,18.3,5.8,101.4-6.2,208.3-61.5,295.4-36.3,57.1-92.3,104.6-150.1,138.9-5,3-15.7,10.1-20.4,11.7s-1.7.4-2.6-.2c-76.8-45.4-142.7-109.6-183.8-189.3C19.1,283.6,7.1,187.5,13.5,92.6c81.6-14.7,163.1-37.1,234.5-80,71,42.6,151.8,64.2,232.3,81.2ZM340.5,443.6c36.2-5.5,66.7-41.2,71.9-76.6,1.1-7.7-.9-18.9.3-24.7s5.3-11.6,6.8-16.2c16.4-49,22.9-101.4,24-153s0-33.1-.5-49.6c-66.2-19.8-133.8-37.1-195.9-67.7-61.5,32.4-128.7,51.9-195.5,69.9-.9,75.5,6.4,153.6,38.9,222.4,1.5,1.4,1.1-1,.9-1.9-4.3-24.1-15.3-50.6-20.6-75.4-2.7-12.4-5.6-27.1-6.3-39.7s-.6-3.8,1-3.5c7.6,37.2,28.1,71.1,54.8,97.6l-23.3,64.3c-.7,8.1,28.3,26.2,35.2,29.9,49.7,26.7,129.3,44.7,180.2,13.6,37.7-23,43.6-71.3,10.1-100.9-62.8-55.5-220.8-16.4-241.5-118.5-11-53.9,27.3-95.4,76.5-109l-18.9,10.6c-62.7,42.3-38.6,100.2,26.9,119.9,68.9,20.8,175.9,16.6,223.4,79.6,30.5,40.4,14,88.2-24.7,115.1l-23.7,13.8ZM123.1,232.7c-1.2.2-2.6,2.5-3.6,3.4,1.9,1.1,11.7,9.5,12.5,9.5s3.5-3.8,4.5-4.5c0-.8-12.2-8.6-13.3-8.4ZM151.1,246.8c-1.4.3-4.9,3.5-2.6,5.3s15.4,5.6,16.3,5.4c2-.5,3.9-3.6,1.7-5.3s-14.6-5.5-15.4-5.3ZM181.5,261.6c.7,1,20.4,5.8,22.7,5.8s4.4-3.7,2.8-5.8-17.1-4.8-19.1-5c-4.2-.3-6,.6-6.5,5ZM251.5,269.6c-.9-1-23.8-5.4-25.3-5.1s-1.8,5.6-1.7,7.1c6.4-.9,18,5,23.5,4s4.5-5,3.5-6ZM268.5,281.5c7.5,0,19.1,6.7,25.6,7s5.8-4.6,2.9-7-21.6-7-24.1-7c-4,0-4.6,3.8-4.4,7ZM318.2,290.7c-1.3.3-5.2,4.7-4.3,5.9,2.3,3.2,21.3,10.1,24.9,15.2,1.6,2.1,8.5-4.1,8.7-4.9.5-2.4-11.9-9.3-14.3-10.6s-12.1-6.4-14.9-5.7ZM368.5,360.6c2.6-.8,11.7-1.9,11.8-5.3s-10.1-28.9-14.1-28.6-10,4.6-9.6,6.3,7,10.3,8.4,13.6,3.6,9.4,3.5,14Z"/>
  <path class="st1" d="M428.5,244.4c-32.6-28.9-63.4-45.3-84.7-54.7-5.8-2.6-91.9-36.7-144-14.3-26.6,11.4-21.2,30.7,3.2,40.2,27.9,10.9,64.9,13.3,94.7,21.3,39.8,10.7,86.7,33.4,103.6,73.4.4.9,2.2,2.5.7,3.3-24.6-40.6-73.3-56.8-117.3-66.7-40.6-9.1-90.4-11.3-128.4-25.6-58.1-21.8-56.1-75.2-4.8-104.3,56-31.7,123.7-23,187.2-10.2,41.7,8.4,74.5,19.9,94.9,27.9.6,15.4.7,31.9,0,49.3-.8,21.7-2.6,41.8-5.1,60.3Z"/>
  <path class="st3" d="M129.5,328.6l30.3,19.2c25.4,13.7,70.4,29.4,98.4,18,11.1-4.6,17.7-12.7,9.3-23.7-14.5-19-69.2-29.9-92.7-38.3l-17.2-7.3c43,10.7,92.4,12.4,132.7,31.8,61.2,29.5,50.7,92.9-14.5,105.9-46.6,9.3-104-4.9-145.2-27.2-3.2-1.7-23.3-13.5-23.9-15.2-1.6-4.8,21.6-54.2,22.9-63.3Z"/>
</svg>