<?xml version="1.0" encoding="UTF-8"?>
<svg id="Layer_1" xmlns="http://www.w3.org/2000/svg" version="1.1" viewBox="0 0 1024 1024">
  <!-- Generator: Adobe Illustrator 30.3.0, SVG Export Plug-In . SVG Version: 2.1.3 Build 182)  -->
  <defs>
    <style>
      .st0 {
        fill: #283a66;
      }

      .st1, .st2 {
        fill: #f0912b;
      }

      .st3, .st2 {
        display: none;
      }

      .st4 {
        fill: #fdfefe;
      }
    </style>
  </defs>
  <g>
    <circle class="st2" cx="512" cy="512" r="512"/>
    <path class="st4" d="M719.5,363.3c-71.5-20.4-138.6-44-207.6-68.4-70.1,24.1-137.1,48.2-207.6,68.3-26.8,55.1-28.2,114.8-3.5,170.8l-26.1,29.4c-39.1-74.2-36.3-160.5,6.3-232.3,78-22.5,152.7-47.1,230.7-76.4,77.3,29,153,54.7,231.9,76.7,17.5,30,28.5,60.4,32.3,94.4,3.9,47.6-3.9,93.8-26,138.3l-26.8-28.8c23.7-56,26.4-115.9-3.8-172.1h.2Z"/>
    <path class="st4" d="M740.7,596.3c-33.2,118.7-121.2,206.6-229.4,260.7-111.7-57.7-190.2-139.1-227.8-260.5l28.4-30.2c30.7,113,95.9,191.1,200.2,249.4,102.4-56.6,168.6-132.7,200-249l28.6,29.6h0Z"/>
    <path class="st4" d="M200.1,234.6c-91.7,127.7-94,299.9-2.7,427.4-7.5,8.1-13.3,16-22,21.1-102.2-142.1-98-333,4.4-471.1l20.4,22.6h0Z"/>
    <path class="st4" d="M848.5,682.6c-9-5.6-14.4-12.7-21.4-21,90.1-128.1,88.4-299-2.9-427.1l20-22.4c102.6,137,106.4,329.5,4.2,470.5h.1Z"/>
    <path class="st4" d="M251,293.5c-60.3,91.9-64.3,215.4-2.9,308.5l-21.3,23c-72.4-105.4-69.2-249.1,3.1-354.5l21.1,23h0Z"/>
    <path class="st4" d="M797.1,624.7l-20.5-22.8c60.4-94.6,57.6-214.5-4.1-308.6l21.4-22.5c73.4,104.7,74.7,250.5,3.2,353.9h0Z"/>
  </g>
  <g class="st3">
    <path class="st0" d="M779.1,935.3l9.6-21.7,13,5.1c6.4,2.5,20-2.6,19.7-10.5l-41.2-97.6c-2.9,8.2-1,14.3-1.9,20.8l-25.4.5.5,74.2-33,.9v-74.2l-16.3-1.8v-24.2c4.9,0,9.8.7,16.4-1-2.5-22.2,11.6-40.2,33.6-42.2,10.6-.9,20.7-.5,30.5,4.9l-6.6,24.9c-7.5-4.3-12.7-5.1-20.1-3.3-5.4,1.3-8.7,14.6-4.2,15.6l57.2-.5,26.9,64.7,27.7-65h30l-44.7,108.9c-3.2,7.9-7.8,16.7-14.7,21.9-16.3,12.3-39.3,11-57-.6v.2h0Z"/>
    <path class="st0" d="M238.9,878c-8.9,37.3-73.8,39.3-110.4,18.2l10.2-26.6c23.6,16.9,66.6,19.5,68.4,2.4.5-4.9-2.7-10.2-8-11.7l-34.5-9.9c-10-2.9-20.8-6.3-27.6-14.4-8.5-10.2-9.2-23.9-4.6-36.6,12.3-33.7,67.2-35.7,101.4-17.8l-9.5,26.7c-23.7-13.5-60.3-15.6-61.3,2.5-.3,5.5,3.8,9.7,9.4,11.2l30.4,8.1c10.3,2.7,20.7,6.2,28.3,13.8,8.9,9,10.7,21.3,7.6,34.2h.2Z"/>
    <path class="st0" d="M412.9,832l-.3,74.8h-32.1v-74.3l-16-.7v-24.8c6.3,0,10.7.7,16.6-.9-2.4-22,11.5-39.6,32.8-42.1,11.3-1.3,22.8-1.3,32.2,5.3l-6.8,23.8c-7.8-3.8-13.9-5.2-21.4-2.3-4,1.5-7.8,11.9-3.7,14.5,6.6,3.9,16.3,1,24.4,1.5l.3,24.8-25.9.3h-.1Z"/>
    <path class="st1" d="M629.3,880l9.1,21.1c-15.4,10.4-37.5,10.2-52.8-1.8-7.1-5.6-10.5-15.3-10.6-24.1l-.3-42.4c-4.9-1.3-9.2-1.3-15.1-.9v-24.3l14.8-.6.6-25.8,32.3-.3.3,25.9h23.5v25l-23.6.2v37.4c0,5.2,1.6,9.8,4.9,11.9,4.7,2.8,9.8,2.9,16.9-1.3h0Z"/>
    <rect class="st1" x="653.6" y="806.7" width="32" height="101"/>
    <path class="st1" d="M669.4,793c-10.5-1-17.9-7.8-18.2-17.1-.3-9.4,7.1-17.5,17.1-18.8,12-1.5,22.1,5.9,22.7,17.1.5,11.3-8.8,20.1-21.6,18.9h0Z"/>
    <g>
      <path class="st1" d="M528.1,873.8l15.9,17.6c-19.6,21.3-56.7,22.9-80.4,6.8-19.5-13.3-25.5-36.9-18.6-59.3,6.4-20.4,26.4-34.6,49.7-35.8,17-.9,32.7,4.9,43.4,16.2,11.7,12.4,15.6,28.7,13.5,45.8l-76.5.4c2.9,9.2,10.2,15.2,19.6,17.2,11.9,2.6,23.7-1.1,33.4-8.9h0ZM521.8,846.7c-3.1-12.3-13.2-19-24.5-18.6-10,.3-19.5,6.9-22.5,18.6h47Z"/>
      <path class="st4" d="M521.8,846.7h-47c3-11.8,12.5-18.3,22.5-18.6,11.3-.4,21.4,6.3,24.5,18.6Z"/>
    </g>
    <g>
      <path class="st0" d="M318.9,896.9c-14.1,17.8-49.8,15.1-61.5-1.8-5.7-8.2-6.7-18.5-3.2-27.9,7.9-21.6,38.8-19.8,63.5-20.4.2-9.4-6.7-15.5-15.1-16.9-12.4-2.1-24.1.9-35.5,8.2l-9.7-23.2c20-12.1,44.5-15.4,66.8-8,15.7,5.2,26,19.1,26.3,35.4l1.1,64.9-30.9-.3c0-3.3,1-5.5-1.7-9.9h-.1ZM317.9,864.6l-23.6,1c-6.9.3-11,6.7-10.2,12.3,1,6.4,7.1,9.3,14,9.2,6.6-.2,12.2-1.9,16.3-6.3,3.7-3.9,5-10.4,3.5-16.2h0Z"/>
      <path class="st4" d="M317.9,864.6c1.6,5.8.3,12.3-3.5,16.2-4.2,4.3-9.7,6.1-16.3,6.3-6.9.2-13-2.7-14-9.2-.9-5.7,3.3-12,10.2-12.3l23.6-1h0Z"/>
    </g>
  </g>
</svg>